<svg id="Capa_1" enable-background="new 0 0 512 512" height="512" viewBox="0 0 512 512" width="512" xmlns="http://www.w3.org/2000/svg"><g><path d="m166.716 465.878h15v15h-15z"/><path d="m195.872 465.878h15v15h-15z"/><path d="m166.525 336.882v107.895h165.861v-107.895zm150.862 92.895c-1.76 0-131.886 0-135.861 0v-77.895h135.861z"/><path d="m367.867 107.185h48.107v15h-48.107z"/><path d="m367.867 242.901h48.107v15h-48.107z"/><path d="m174.025 290.435h243.949v15h-243.949z"/><path d="m351.025 336.882h66.949v15h-66.949z"/><path d="m351.025 383.33h66.949v15h-66.949z"/><path d="m351.025 429.777h66.949v15h-66.949z"/><path d="m367.867 61.946h48.107v15h-48.107z"/><path d="m367.867 152.424h48.107v15h-48.107z"/><path d="m367.867 197.663h48.107v15h-48.107z"/><path d="m347.479 61.946h-175.954v195.954h175.954zm-15 180.954h-145.954v-165.954h145.954z"/><path d="m310.862 195.344c0-20.348-11.894-37.969-29.094-46.278 17.265-19.124 3.791-50.082-22.265-50.082-26.062 0-39.528 30.961-22.266 50.082-17.201 8.309-29.095 25.931-29.095 46.279v25.518h102.72zm-51.359-81.36c8.271 0 15 6.729 15 15s-6.729 15-15 15-15-6.729-15-15 6.728-15 15-15zm36.359 91.878h-72.72v-10.518c0-20.049 16.312-36.36 36.36-36.36s36.359 16.311 36.359 36.36v10.518z"/><path d="m419.776.035-32.203-.01v15h31.625c16.558.93 29.503 14.622 29.503 31.25v309.225h15v-309.225c0-24.686-19.294-44.997-43.925-46.24z"/><path d="m448.701 465.726c0 16.628-12.943 30.32-29.501 31.25h-287.686c8.369-10.157 9.401-19.028 9.401-31.25 0-1.61-.013-406.839-.014-424.563 0-9.916-3.525-19.024-9.387-26.138h240.804v-15c-.101 0-238.608-.021-282.856-.025-22.697 0-41.163 18.465-41.163 41.163v115.231h77.616v199.213h-77.616v115.231c0 22.697 18.466 41.163 41.163 41.163 37.295-.003 320.314-.033 330.314-.034 24.631-1.244 43.925-21.555 43.925-46.24v-94.227h-15zm-322.8-324.332h-62.602v-100.231c0-14.427 11.736-26.163 26.163-26.163h6.774v.015c16.455.831 29.377 14.266 29.666 30.699v95.68zm0 324.893c-.289 16.433-13.211 29.867-29.666 30.698v.015h-6.774c-14.427 0-26.163-11.736-26.163-26.163v-100.231h62.603z"/></g></svg>