<svg id="Capa_1" enable-background="new 0 0 511.948 511.948" height="512" viewBox="0 0 511.948 511.948" width="512" xmlns="http://www.w3.org/2000/svg"><g><path d="m212.597 42.823h15v15h-15z"/><path d="m243.64 42.823h15v15h-15z"/><path d="m132.861 158.885h15.656v15h-15.656z"/><path d="m210.451 158.885h15.656v15h-15.656z"/><path d="m205.198 204.074v-6.909h-15v6.909c0 5.908-4.807 10.714-10.714 10.714s-10.714-4.806-10.714-10.714v-6.909h-15v6.909c0 14.179 11.535 25.714 25.714 25.714s25.714-11.535 25.714-25.714z"/><path d="m496.948 496.862c-19.785 0-150.392 0-177.686 0v-208.164h-15v38.491c-35.122-11.476-40.725-12.442-76.088-21.629v-31.293c26.004-14.506 43.081-42.503 43.081-73.287v-58.656l25.027.316v-86.166c0-31.093-25.292-56.39-56.38-56.39h-86.62c-11.609 0-25.056 4.477-35.971 11.974-10.368 7.123-16.975 15.883-19.133 25.182-21.271 4.082-37.136 22.771-37.136 45.044v59.97h25.027v58.721l.01.005h-.009c0 31.835 17.867 59.899 44.722 74.035v30.701c-108.444 30.666-84.53 24.747-98.945 29.059-18.75 6.309-31.847 24.928-31.847 45.279v131.81h351.471v-.002h160.478v-170.998h-15v155.998zm-252.116-171.346-22.062 52.951-6.022-5.459.003-.006-26.137-23.695 32.046-29.571c9.715 2.75 16.105 4.313 22.172 5.78zm-65.347 13.648-33.691-31.089v-26.937c12.535 3.747 21.915 3.715 42.772 3.463 8.215-.003 16.496-1.247 24.608-3.835v27.309zm-103.441-211.91v-44.97c0-16.445 12.846-29.987 29.244-30.83l7.115-.366v-7.125c0-14.602 23.408-28.88 40.88-28.88h86.62c22.817 0 41.38 18.567 41.38 41.39v70.975c-40.627-.152-49.899-.187-51.622-.193-.01 0-.022 0-.035 0-.02 0-.035 0-.053 0h.036c-.028 0-.061 0-.098 0-.127 0-.184-.001-.196-.001h.002c-.001 0-.002 0-.004 0v.29h-.2c-27.159 0-49.255-22.095-49.255-49.254v-7.5h-28.018c-33.106 0-60.564 24.592-65.099 56.465h-10.697zm153.372.001c-.01 0-.021 0-.031 0 .009-.001.02 0 .031 0zm-128.344 73.725-.001-64.421c0-27.995 22.775-50.77 50.77-50.77h13.453c3.726 31.91 30.926 56.754 63.819 56.754h27.143v58.436c0 27.009-15.993 50.959-38.898 62.023-16.374 7.913-28.25 6.606-47.653 6.608-37.715.002-68.633-30.568-68.633-68.63zm35.249 118.764c7.603 7.016 24.339 22.459 32.038 29.564-.166.15-2.084 1.889-32.169 29.16l-22.061-52.939c5.12-1.174 10.536-2.432 22.192-5.785zm11.072 177.12h-77.683v-69.208h-15v69.208h-39.71v-116.81c0-13.353 8.167-26.64 22.299-31.276 8.772-2.814 43.186-14.201 62.13-19.531l31.09 74.607 17.88-16.206 8.027 19.036zm15.076 0 8.396-83.834h17.191l7.684 83.834zm27.454-98.834h-20.867l-8.879-21.057 19.308-17.5 19.311 17.506zm114.34 29.626h-.004v69.208h-93.456l-8.263-90.15 8.033-19.058 17.868 16.198 31.099-74.639c9.029 2.433 21.802 6.215 44.723 13.76z"/><path d="m229.315 127.254c-.003 0-.004 0-.001 0z"/><path d="m229.72 127.256c.064 0 .051 0 0 0z"/><path d="m229.67 127.255h.05c-.013.001-.03.001-.05 0z"/><path d="m229.609 127.255h.017.035.009c-.019 0-.039 0-.061 0z"/><path d="m435.89 236.59c-3.308-12.242-14.511-21.275-27.784-21.275s-24.478 9.033-27.785 21.275c-23.423 0-54.047 0-76.058 0v36.94h15v-21.94h34.625v22.208h-18.309v209.696h145.052v-209.696h-18.309v-22.208h34.626v74.274h15v-89.274c-21.526 0-52.75 0-76.058 0zm-67.002 15h25.441v-7.5c0-7.596 6.18-13.775 13.776-13.775s13.775 6.18 13.775 13.775v7.5h25.441v22.208h-78.435v-22.208zm96.743 37.208v179.696h-115.052v-179.696z"/><path d="m441.037 365.699-10.65-10.563-31.327 31.59-13.78-11.404-9.564 11.556 24.342 20.145z"/></g></svg>