<?xml version="1.0" encoding="iso-8859-1"?>
<!-- Generator: Adobe Illustrator 19.0.0, SVG Export Plug-In . SVG Version: 6.00 Build 0)  -->
<svg xmlns="http://www.w3.org/2000/svg" xmlns:xlink="http://www.w3.org/1999/xlink" version="1.1" id="Capa_1" x="0px" y="0px" viewBox="0 0 512 512" style="enable-background:new 0 0 512 512;" xml:space="preserve">
<g>
	<g>
		<path d="M364.199,124.509c-1.777-3.743-6.248-5.336-9.991-3.562c-3.743,1.775-5.337,6.249-3.562,9.991    c17.68,37.27,11.62,81.428-14.715,112.554l-43.665-21.833c-2.91-1.455-4.717-4.379-4.717-7.632v-10.629    c9.825-8.723,16.032-21.435,16.032-35.575v-8.537c0.173,0.001,0.343,0.005,0.516,0.005c4.142,0,7.5-3.358,7.5-7.5v-16.032    c0-26.236-21.345-47.581-47.581-47.581h-16.032c-26.236,0-47.581,21.345-47.581,47.581v16.032c0,4.142,3.358,7.5,7.5,7.5    c0.062,0,0.242-0.002,0.516-0.013v8.545c0,14.141,6.207,26.853,16.032,35.575v10.629c0,3.252-1.807,6.177-4.716,7.632    l-43.674,21.837c-16.04-18.889-24.787-42.599-24.787-67.657c0-27.973,10.893-54.272,30.673-74.053    c35.961-35.961,92.275-40.969,133.902-11.91c3.395,2.371,8.071,1.54,10.443-1.857c2.371-3.396,1.54-8.072-1.857-10.443    C276.837,44.349,212.451,50.069,171.341,91.18c-22.613,22.613-35.067,52.679-35.067,84.659s12.454,62.046,35.067,84.659    c22.613,22.613,52.679,35.067,84.659,35.067s62.046-12.454,84.659-35.067C376.379,224.778,385.839,170.128,364.199,124.509z     M215.403,142.748v-6.99c0-17.965,14.616-32.581,32.581-32.581h16.032c17.965,0,32.581,14.616,32.581,32.581v8.331    c-32.603-1.759-52.278-14.446-52.469-14.571c-1.269-0.846-2.717-1.26-4.158-1.26c-1.936,0-3.856,0.747-5.306,2.197    C227.488,137.63,220.458,141.085,215.403,142.748z M223.419,167.823v-12.091c5.253-2.099,11.373-5.437,17.601-10.742    c7.876,4.098,24.354,11.181,47.561,13.521v9.312c0,17.965-14.616,32.581-32.581,32.581    C238.035,200.404,223.419,185.788,223.419,167.823z M248.5,280.298c-22.802-1.603-44.164-10.502-61.371-25.567l39.315-19.656    c1.329-0.665,2.565-1.449,3.719-2.322L248.5,251.09V280.298z M238.669,220.046c0.506-1.934,0.783-3.951,0.783-6.019v-1.597    c5.157,1.92,10.731,2.973,16.548,2.973s11.391-1.054,16.548-2.973v1.597c0,2.069,0.276,4.085,0.783,6.019L256,237.377    L238.669,220.046z M263.5,280.299V251.09l18.338-18.338c1.153,0.873,2.39,1.658,3.719,2.322l39.314,19.658    C307.664,269.797,286.302,278.696,263.5,280.299z"/>
	</g>
</g>
<g>
	<g>
		<path d="M447.869,102.318c0-6.286-2.448-12.195-6.893-16.639L362.193,6.894c-4.444-4.445-10.354-6.893-16.64-6.893L79.645,0    c-8.556,0-15.516,6.96-15.516,15.516v480.968c0,8.556,6.96,15.516,15.516,15.516h352.71c8.556,0,15.516-6.96,15.516-15.516    L447.869,102.318z M359.693,25.607l62.569,62.57h-62.053c-0.285,0-0.516-0.231-0.516-0.516V25.607z M432.355,497H79.645    c-0.285,0-0.516-0.231-0.516-0.516V15.516c0-0.285,0.231-0.516,0.516-0.516l265.048,0.001v72.66    c0,8.556,6.96,15.516,15.516,15.516h72.66l0.002,393.307C432.871,496.769,432.64,497,432.355,497z"/>
	</g>
</g>
<g>
	<g>
		<path d="M183.855,336.677h-32.064c-4.142,0-7.5,3.358-7.5,7.5c0,4.142,3.358,7.5,7.5,7.5h32.064c4.142,0,7.5-3.358,7.5-7.5    C191.355,340.035,187.997,336.677,183.855,336.677z"/>
	</g>
</g>
<g>
	<g>
		<path d="M360.209,336.677h-144.29c-4.142,0-7.5,3.358-7.5,7.5c0,4.142,3.358,7.5,7.5,7.5h144.29c4.142,0,7.5-3.358,7.5-7.5    C367.709,340.035,364.352,336.677,360.209,336.677z"/>
	</g>
</g>
<g>
	<g>
		<path d="M183.855,368.742h-32.064c-4.142,0-7.5,3.358-7.5,7.5c0,4.142,3.358,7.5,7.5,7.5h32.064c4.142,0,7.5-3.358,7.5-7.5    C191.355,372.1,187.997,368.742,183.855,368.742z"/>
	</g>
</g>
<g>
	<g>
		<path d="M360.209,368.742h-144.29c-4.142,0-7.5,3.358-7.5,7.5c0,4.142,3.358,7.5,7.5,7.5h144.29c4.142,0,7.5-3.358,7.5-7.5    C367.709,372.1,364.352,368.742,360.209,368.742z"/>
	</g>
</g>
<g>
	<g>
		<path d="M183.855,400.807h-32.064c-4.142,0-7.5,3.358-7.5,7.5c0,4.142,3.358,7.5,7.5,7.5h32.064c4.142,0,7.5-3.358,7.5-7.5    C191.355,404.165,187.997,400.807,183.855,400.807z"/>
	</g>
</g>
<g>
	<g>
		<path d="M360.209,400.807h-144.29c-4.142,0-7.5,3.358-7.5,7.5c0,4.142,3.358,7.5,7.5,7.5h144.29c4.142,0,7.5-3.358,7.5-7.5    C367.709,404.165,364.352,400.807,360.209,400.807z"/>
	</g>
</g>
<g>
	<g>
		<path d="M183.855,432.871h-32.064c-4.142,0-7.5,3.358-7.5,7.5c0,4.142,3.358,7.5,7.5,7.5h32.064c4.142,0,7.5-3.358,7.5-7.5    C191.355,436.229,187.997,432.871,183.855,432.871z"/>
	</g>
</g>
<g>
	<g>
		<path d="M360.209,432.871h-144.29c-4.142,0-7.5,3.358-7.5,7.5c0,4.142,3.358,7.5,7.5,7.5h144.29c4.142,0,7.5-3.358,7.5-7.5    C367.709,436.229,364.352,432.871,360.209,432.871z"/>
	</g>
</g>
<g>
</g>
<g>
</g>
<g>
</g>
<g>
</g>
<g>
</g>
<g>
</g>
<g>
</g>
<g>
</g>
<g>
</g>
<g>
</g>
<g>
</g>
<g>
</g>
<g>
</g>
<g>
</g>
<g>
</g>
</svg>
